<?xml version="1.0"?>
<svg xmlns="http://www.w3.org/2000/svg" xmlns:xlink="http://www.w3.org/1999/xlink" xmlns:svgjs="http://svgjs.com/svgjs" version="1.1" width="512" height="512" x="0" y="0" viewBox="0 0 511.622 511.622" style="enable-background:new 0 0 512 512" xml:space="preserve" class=""><g><g xmlns="http://www.w3.org/2000/svg"><path d="m427.34 93.468c-8.274 0-15.006 11.182-15.006 24.926s6.731 24.927 15.006 24.927 15.006-11.182 15.006-24.927-6.731-24.926-15.006-24.926z" fill="#4986fc" data-original="#000000" style="" class=""/><path d="m347.865 118.394c0-13.745-6.731-24.926-15.006-24.926s-15.006 11.182-15.006 24.926 6.731 24.927 15.006 24.927 15.006-11.183 15.006-24.927z" fill="#4986fc" data-original="#000000" style="" class=""/><path d="m380.1 207.876c24.469 0 46.424-14.575 55.935-37.132 1.609-3.816-.18-8.215-3.997-9.824-3.818-1.61-8.215.18-9.824 3.997-7.161 16.985-23.692 27.959-42.113 27.959s-34.952-10.975-42.113-27.959c-1.608-3.817-6.007-5.607-9.824-3.997-3.817 1.609-5.606 6.008-3.997 9.824 9.508 22.557 31.464 37.132 55.933 37.132z" fill="#4986fc" data-original="#000000" style="" class=""/><path d="m380.102.1c-72.521 0-131.52 59-131.52 131.52 0 54.095 33.571 103.028 83.809 122.596l26.818 43.217c4.511 7.273 12.313 11.693 20.871 11.825.131.002.261.003.391.003 8.414 0 16.187-4.165 20.852-11.195l30.063-45.32c8.644-3.664 16.909-8.271 24.6-13.713 3.381-2.393 4.182-7.073 1.79-10.455-2.394-3.381-7.073-4.183-10.455-1.79-7.384 5.226-15.364 9.581-23.719 12.945-1.407.566-2.61 1.547-3.449 2.811l-31.33 47.229c-1.927 2.904-5.031 4.517-8.513 4.486-3.477-.053-6.521-1.778-8.355-4.734l-28.16-45.38c-.883-1.424-2.218-2.511-3.792-3.087-45.71-16.754-76.421-60.734-76.421-109.438 0-64.25 52.271-116.52 116.52-116.52s116.52 52.271 116.52 116.52c0 28.107-10.149 55.245-28.577 76.416-2.719 3.125-2.391 7.862.733 10.582 3.125 2.719 7.861 2.392 10.582-.733 20.805-23.901 32.263-54.537 32.263-86.264-.001-72.521-59.001-131.521-131.521-131.521z" fill="#4986fc" data-original="#000000" style="" class=""/><path d="m408.206 334.015c-20.869-11.601-52.477-25.509-84.543-25.895-17.269-.215-33.887 8.961-43.26 23.935-8.872 14.195-14.36 26.941-16.389 38.034-4.324-1.273-10.275-3.328-17.373-6.552-13.916-6.322-35.214-18.568-57.655-41.01-24.9-24.9-37.004-45.878-42.772-59.092-2.885-6.609-4.512-11.978-5.428-15.833 11.241-1.933 24.204-7.46 38.675-16.504 14.963-9.362 24.129-25.938 23.921-43.258-.385-32.059-14.294-63.665-25.893-84.531-8.901-16.032-25.722-26.006-43.907-26.029-1.117 0-2.234.01-3.324.031-21.168.35-41.216 5.476-59.585 15.236-3.658 1.943-5.048 6.484-3.104 10.142 1.943 3.658 6.484 5.047 10.142 3.104 8.695-4.62 17.825-8.055 27.31-10.309 34.997 49.834 42.997 115.411 44.612 134.1-6.598 2.506-12.497 3.796-17.512 3.796-2.017 0-3.948.812-5.359 2.253-1.411 1.44-2.182 3.389-2.14 5.405.034 1.599 1.425 39.766 53.755 92.096 46.71 46.71 89.364 53.415 91.156 53.678 2.157.318 4.343-.321 5.991-1.747 1.648-1.424 2.596-3.496 2.596-5.674 0-5.017 1.29-10.917 3.797-17.517 18.683 1.614 84.268 9.612 134.107 44.615-6.639 28.033-23.414 52.515-48.131 69.343-32.297 21.99-71.775 26.745-108.311 13.045-52.362-19.629-100.521-51.191-143.139-93.81-42.637-42.645-74.203-90.808-93.821-143.149-8.676-23.145-9.972-47.868-3.748-71.496 5.969-22.661 18.345-42.898 35.789-58.525 3.085-2.764 3.346-7.505.582-10.591s-7.506-3.345-10.591-.582c-19.636 17.591-33.567 40.371-40.286 65.877-7.02 26.648-5.564 54.513 4.207 80.582 20.375 54.361 53.098 104.32 97.26 148.491 44.144 44.144 94.1 76.863 148.48 97.249 15.266 5.724 30.932 8.6 46.765 8.599 5.858 0 11.741-.394 17.633-1.182 20.479-2.742 40.404-10.387 57.621-22.109 36.055-24.548 57.145-63.543 57.864-107.037.011-1.084.021-2.178.021-3.283-.02-18.161-9.988-34.981-26.013-43.896zm-286.88-241.198c3.038-.28 6.102-.457 9.198-.508 1.013-.019 2.036-.028 3.048-.028 12.738.017 24.541 7.033 30.805 18.314.437.787.879 1.595 1.323 2.414l-7.185 2.219c-3.958 1.222-6.175 5.421-4.953 9.379.995 3.221 3.96 5.289 7.164 5.289.733 0 1.479-.108 2.215-.336l9.588-2.961c1.478 3.193 2.927 6.521 4.314 9.957l-8.549 2.642c-3.958 1.223-6.174 5.422-4.951 9.38.995 3.22 3.96 5.288 7.163 5.288.733 0 1.479-.108 2.217-.336l9.201-2.843c1.109 3.534 2.112 7.138 2.982 10.791l-11.76 3.631c-3.958 1.222-6.176 5.421-4.954 9.378.994 3.221 3.96 5.29 7.164 5.29.733 0 1.478-.108 2.215-.336l10.018-3.093c.466 3.879.747 7.778.794 11.674.146 12.123-6.322 23.757-16.875 30.36-2.53 1.581-4.998 3.028-7.414 4.367-2.479-24.133-11.466-81.846-42.768-129.932zm297.877 288.179c-.051 3.09-.231 6.151-.513 9.186-48.087-31.303-105.802-40.29-129.932-42.769 1.337-2.412 2.782-4.877 4.361-7.403 6.541-10.448 17.99-16.893 29.962-16.893.133 0 .268.001.401.002 3.432.041 6.868.264 10.289.634l-2.384 5.814c-1.571 3.833.262 8.213 4.094 9.785.932.382 1.895.562 2.842.562 2.953 0 5.753-1.756 6.942-4.657l3.656-8.917c3.834.882 7.617 1.912 11.324 3.061l-3.139 7.656c-1.571 3.833.262 8.213 4.095 9.784.931.382 1.894.562 2.842.562 2.953 0 5.753-1.756 6.942-4.657l3.408-8.312c3.349 1.34 6.596 2.741 9.719 4.172l-3.726 9.091c-1.571 3.833.263 8.213 4.096 9.784.931.381 1.894.562 2.841.562 2.953 0 5.753-1.756 6.943-4.658l3.313-8.083c1.14.611 2.255 1.219 3.335 1.82 11.275 6.273 18.29 18.077 18.307 30.795.001 1.049-.009 2.095-.018 3.079z" fill="#4986fc" data-original="#000000" style="" class=""/></g></g></svg>
