<?xml version="1.0"?>
<svg xmlns="http://www.w3.org/2000/svg" xmlns:xlink="http://www.w3.org/1999/xlink" xmlns:svgjs="http://svgjs.com/svgjs" version="1.1" width="512" height="512" x="0" y="0" viewBox="0 0 512.003 512.003" style="enable-background:new 0 0 512 512" xml:space="preserve" class=""><g><g xmlns="http://www.w3.org/2000/svg"><path d="m326.843 434.635h-36.657c-5.82 0-10.555 4.735-10.555 10.555v21.383c0 5.82 4.735 10.555 10.555 10.555h36.657c5.82 0 10.555-4.735 10.555-10.555v-21.383c-.001-5.82-4.736-10.555-10.555-10.555zm-4.446 27.493h-27.767v-12.493h27.767z" fill="#4986fc" data-original="#000000" style=""/><path d="m208.026 153.889c-4.142 0-7.5 3.358-7.5 7.5v20.732c0 4.142 3.358 7.5 7.5 7.5s7.5-3.358 7.5-7.5v-20.732c0-4.142-3.358-7.5-7.5-7.5z" fill="#4986fc" data-original="#000000" style=""/><path d="m303.976 189.622c4.142 0 7.5-3.358 7.5-7.5v-20.732c0-4.142-3.358-7.5-7.5-7.5s-7.5 3.358-7.5 7.5v20.732c0 4.142 3.358 7.5 7.5 7.5z" fill="#4986fc" data-original="#000000" style=""/><path d="m256.001 239.901c15.645 0 28.374-12.729 28.374-28.374 0-4.142-3.358-7.5-7.5-7.5s-7.5 3.358-7.5 7.5c0 7.374-6 13.374-13.374 13.374s-13.374-6-13.374-13.374c0-4.142-3.358-7.5-7.5-7.5s-7.5 3.358-7.5 7.5c.001 15.646 12.729 28.374 28.374 28.374z" fill="#4986fc" data-original="#000000" style=""/><path d="m400.115 418.87c4.142 0 7.5-3.358 7.5-7.5v-59.955c0-27.661-22.503-50.164-50.164-50.164-12.438 0-8.87 0-21.217 0l-33.167-17.115v-7.145c8.143-3.961 15.815-8.942 22.788-14.902 17.656-15.091 29.953-35.481 35.054-57.932 20.607-2.4 36.656-19.964 36.656-41.205 0-14.004-6.824-26.217-17.417-33.798 1.251-2.155 1.979-4.648 1.979-7.313v-52.722c0-34.501-28.069-62.571-62.57-62.571-26.698 0-47.896.018-64.843.032-19.243.017-33.007.028-43.114.003-.006 0-.013 0-.019 0-4.133 0-7.489 3.346-7.5 7.481-.01 4.142 3.339 7.508 7.481 7.519 10.123.025 23.896.013 43.164-.003 16.944-.014 38.137-.032 64.831-.032 26.23 0 47.57 21.34 47.57 47.571v52.349c-5.301 0-140.633 0-148.128 0-15.93 0-31.74-4.298-45.595-12.601-19.282-11.524-34.264-30.414-40.404-53.554-9.034-34.045-8.543-31.808-8.543-33.139 0-3.887 3.284-7.171 7.171-7.171.717 0-1.97-.295 44.174 5.31 4.11.495 7.848-2.436 8.344-6.547.497-4.112-2.435-7.848-6.547-8.344-47.181-5.731-44.062-5.418-45.971-5.418-12.226 0-22.171 9.946-22.171 22.171 0 3.891.062 3.133 9.045 36.986 2.554 9.623 6.427 18.623 11.373 26.848v44.652c-9.85 7.979-15.438 19.646-15.438 32.291 0 11.398 4.529 22.026 12.753 29.925 6.629 6.367 14.946 10.26 23.903 11.282 5.102 22.448 17.398 42.838 35.052 57.928 6.973 5.96 14.646 10.942 22.79 14.903v7.145l-33.167 17.115c-12.333 0-8.786 0-21.217 0-27.66 0-50.164 22.503-50.164 50.164v153.087c0 4.142 3.358 7.5 7.5 7.5h288.228c4.142 0 7.5-3.358 7.5-7.5v-58.131c0-4.142-3.358-7.5-7.5-7.5s-7.5 3.358-7.5 7.5v50.633h-29.033v-180.206c16.475 2.91 29.033 17.32 29.033 34.618v59.955c0 4.142 3.358 7.5 7.5 7.5zm-191.759-39.869c-1.485.574-3.08-.517-3.08-2.112 0-13.301 0-21.667 0-35.176 0-1.569 1.571-2.695 3.08-2.113l26.646 10.288v18.825c-1.025.396-19.578 7.559-20.593 7.951zm41.645-26.757h12v14.113h-12zm-6.102 29.114h24.205c3.804 1.469 2.265.875 16.094 6.214-3.059 5.206-10.32 17.293-28.196 47.171-18.026-30.127-25.155-41.996-28.196-47.171 6.546-2.529 9.468-3.657 16.093-6.214zm33.102-12.645v-18.825l26.645-10.288c1.485-.572 3.081.515 3.081 2.113v35.176c0 1.593-1.593 2.688-3.081 2.112-23.787-9.184-21.221-8.193-26.645-10.288zm38.532-40.248c-4.987-4.152-11.657-5.032-17.29-2.858l-22.545 8.705 22.546-35.785 26.003 13.419zm-170.658-223.059c2.698 2.738 5.553 5.329 8.558 7.766-.572 1.803-1.635 5.506-2.336 8.573-2.115.241-4.192.648-6.222 1.204zm19.826 90.258c-.617-3.687-3.872-6.403-7.7-6.257-7.282.294-14.18-2.315-19.42-7.348-5.252-5.044-8.144-11.83-8.144-19.107 0-15.266 12.74-27.077 27.564-26.455.038.001.074-.002.112-.001 3.718.101 6.971-2.565 7.588-6.256.395-2.364.943-5.009 1.741-8.046 16.134 9.487 34.222 14.274 52.557 14.274 138.57 0 136.002.028 136.002.028 15.254-.619 27.564 11.584 27.564 26.455 0 14.938-12.449 27.072-27.564 26.455-3.753-.14-7.076 2.529-7.7 6.257-5.306 31.728-26.179 57.269-54.072 69.444-2.108.693-16.2 7.685-36.967 7.741-.175 0-.35 0-.526 0-20.76-.058-34.865-7.049-36.963-7.74-27.893-12.175-48.766-37.716-54.072-69.444zm93.492 92.141c10.361-.21 20.539-1.916 29.875-4.824v3.558c-3.293 5.226-28.189 44.742-31.946 50.705h-.241c-2.227-3.534-26.831-42.586-31.946-50.705v-3.558c10.899 3.394 22.622 5.061 34.258 4.824zm-44.435 10.721 22.546 35.785-8.761-3.383-13.785-5.323c-.003-.001-.006-.002-.009-.003-5.684-2.191-12.203-1.265-17.108 2.73-.056.046-.116.085-.171.132l-8.715-16.52zm-94.37 52.889c0-17.298 12.558-31.708 29.033-34.618v180.205h-29.033zm44.033 145.588v-180.752h9.646l17.209 32.62v28.04.012.031c.021 5.669 2.822 10.963 7.5 14.171 2.917 2 6.327 3.028 9.765 3.028 2.054 0 4.117-.372 6.091-1.117 2.745 4.774 9.722 16.34 35.934 60.164 1.354 2.264 3.798 3.65 6.437 3.65 2.638 0 5.083-1.386 6.437-3.65 26.244-43.877 33.189-55.393 35.933-60.164 1.975.745 4.037 1.117 6.091 1.117 3.438 0 6.848-1.027 9.765-3.028 4.696-3.221 7.5-8.543 7.5-14.237v-28.018l17.209-32.62h9.646v180.751h-185.163z" fill="#4986fc" data-original="#000000" style=""/></g></g></svg>
